<svg width="191" height="36" viewBox="0 0 191 36" fill="none" xmlns="http://www.w3.org/2000/svg">
<g clip-path="url(#clip0_29_18)">
<path d="M34.7527 19.4217C34.4996 16.5804 34.0826 16.027 33.9251 15.8189C33.563 15.338 32.9837 15.0237 32.3705 14.6939C32.3359 14.6756 32.3059 14.6494 32.2831 14.6175C32.2602 14.5857 32.2451 14.5489 32.2389 14.5102C32.2327 14.4715 32.2356 14.4318 32.2473 14.3944C32.2591 14.357 32.2793 14.3228 32.3066 14.2945C32.4201 14.1794 32.5074 14.041 32.5623 13.8889C32.6173 13.7368 32.6387 13.5747 32.6251 13.4135C32.5986 13.1278 32.4658 12.8624 32.2528 12.67C32.0399 12.4777 31.7624 12.3724 31.4755 12.375H30.3786C30.3316 12.3753 30.2846 12.3783 30.238 12.3841C30.2059 12.3703 30.1728 12.3592 30.1388 12.3511C29.4891 10.9779 28.5997 9.09773 26.7561 8.18016C24.0216 6.82031 18.9844 6.75 18.0001 6.75C17.0157 6.75 11.9785 6.82031 9.24757 8.17805C7.40398 9.09562 6.51452 10.9758 5.86484 12.349L5.85921 12.3602C5.82681 12.3648 5.79499 12.3728 5.76429 12.3841C5.71763 12.3783 5.67068 12.3753 5.62366 12.375H4.52468C4.23773 12.3724 3.96027 12.4777 3.74732 12.67C3.53438 12.8624 3.40151 13.1278 3.37507 13.4135C3.36258 13.5743 3.38495 13.7358 3.44065 13.8872C3.49635 14.0385 3.58407 14.176 3.6978 14.2903C3.72501 14.3186 3.74529 14.3527 3.75702 14.3902C3.76876 14.4276 3.77164 14.4672 3.76544 14.506C3.75923 14.5447 3.74411 14.5814 3.72127 14.6133C3.69843 14.6452 3.66849 14.6714 3.63382 14.6897C3.02069 15.0216 2.43851 15.3359 2.07921 15.8147C1.92171 16.0256 1.50546 16.5762 1.25163 19.4175C1.11101 21.0164 1.08991 22.6716 1.2003 23.7375C1.43163 25.9523 1.86546 27.2911 1.88374 27.3466C1.95031 27.5488 2.07285 27.7279 2.23714 27.8632C2.40142 27.9985 2.60071 28.0844 2.81187 28.1109V28.125C2.81187 28.4234 2.93039 28.7095 3.14137 28.9205C3.35235 29.1315 3.6385 29.25 3.93687 29.25H7.87437C8.17274 29.25 8.45888 29.1315 8.66986 28.9205C8.88084 28.7095 8.99937 28.4234 8.99937 28.125C9.60476 28.125 10.0259 28.0167 10.4724 27.9014C11.117 27.7277 11.7759 27.6122 12.4412 27.5562C14.5864 27.3516 16.7197 27.2812 18.0001 27.2812C19.2544 27.2812 21.4819 27.3516 23.6307 27.5562C24.2986 27.6123 24.9601 27.7283 25.6072 27.9028C26.0347 28.0125 26.4404 28.1137 27.0022 28.1243C27.0022 28.4227 27.1207 28.7088 27.3317 28.9198C27.5427 29.1308 27.8288 29.2493 28.1272 29.2493H32.0647C32.3631 29.2493 32.6492 29.1308 32.8602 28.9198C33.0712 28.7088 33.1897 28.4227 33.1897 28.1243V28.1159C33.4013 28.0898 33.6012 28.0041 33.7661 27.8688C33.9309 27.7335 34.0538 27.5541 34.1206 27.3516C34.1389 27.296 34.5727 25.9573 34.8041 23.7424C34.9144 22.6758 34.8948 21.0234 34.7527 19.4217ZM7.89827 13.3109C8.46077 12.1155 9.10413 10.7627 10.2495 10.1925C11.9047 9.36844 15.3352 8.99719 18.0001 8.99719C20.6649 8.99719 24.0955 9.36563 25.7506 10.1925C26.896 10.7627 27.5366 12.1162 28.1019 13.3109L28.1722 13.4634C28.2133 13.5503 28.2315 13.6462 28.225 13.7421C28.2185 13.838 28.1875 13.9306 28.1351 14.0111C28.0826 14.0917 28.0104 14.1574 27.9253 14.2021C27.8402 14.2468 27.7451 14.2689 27.6491 14.2664C25.3126 14.2031 20.3907 14.0006 18.0001 14.0006C15.6094 14.0006 10.6876 14.208 8.34757 14.2713C8.2515 14.2738 8.15639 14.2517 8.07131 14.207C7.98623 14.1623 7.91402 14.0966 7.86156 14.0161C7.8091 13.9355 7.77815 13.8429 7.77165 13.747C7.76515 13.6512 7.78333 13.5552 7.82445 13.4684C7.84905 13.4163 7.87507 13.3636 7.89827 13.3109ZM8.7371 18.9098C7.52759 19.0554 6.31034 19.1273 5.0921 19.125C4.34679 19.125 3.57827 18.9141 3.43554 18.2503C3.3378 17.8038 3.34835 17.5528 3.40109 17.3004C3.44538 17.0859 3.51569 16.9298 3.86726 16.875C4.78132 16.7344 5.29249 16.9109 6.78874 17.3517C7.78085 17.6435 8.49663 18.0323 8.90444 18.3403C9.10905 18.4922 9.00007 18.8887 8.7371 18.9098ZM24.3029 24.6755C23.3776 24.7809 21.5269 24.7423 18.0212 24.7423C14.5154 24.7423 12.6655 24.7809 11.7401 24.6755C10.7853 24.5693 9.56819 23.6665 10.3993 22.8621C10.9526 22.332 12.2436 21.9354 13.9627 21.7125C15.6819 21.4896 16.4096 21.375 18.0141 21.375C19.6187 21.375 20.2726 21.4453 22.0655 21.7132C23.8585 21.9811 25.2134 22.3826 25.629 22.8628C26.3869 23.7234 25.257 24.5637 24.3029 24.6797V24.6755ZM32.5646 18.2496C32.424 18.9162 31.6505 19.1243 30.908 19.1243C29.6665 19.1246 28.426 19.0527 27.1927 18.9091C26.9776 18.8887 26.8777 18.5112 27.0957 18.3396C27.4972 18.0239 28.2207 17.6428 29.2114 17.351C30.7077 16.9102 31.5704 16.7337 32.3115 16.8806C32.4922 16.9165 32.5878 17.1105 32.5991 17.2322C32.6486 17.5709 32.637 17.915 32.5646 18.2496Z" fill="#E70A32"/>
<path d="M45.66 25V11H48.34L54.3 20.88H52.88L58.74 11H61.4L61.44 25H58.4L58.38 15.66H58.94L54.26 23.52H52.8L48.02 15.66H48.7V25H45.66ZM71.1416 25V22.9L70.9416 22.44V18.68C70.9416 18.0133 70.7349 17.4933 70.3216 17.12C69.9216 16.7467 69.3016 16.56 68.4616 16.56C67.8882 16.56 67.3216 16.6533 66.7616 16.84C66.2149 17.0133 65.7482 17.2533 65.3616 17.56L64.2416 15.38C64.8282 14.9667 65.5349 14.6467 66.3616 14.42C67.1882 14.1933 68.0282 14.08 68.8816 14.08C70.5216 14.08 71.7949 14.4667 72.7016 15.24C73.6082 16.0133 74.0616 17.22 74.0616 18.86V25H71.1416ZM67.8616 25.16C67.0216 25.16 66.3016 25.02 65.7016 24.74C65.1016 24.4467 64.6416 24.0533 64.3216 23.56C64.0016 23.0667 63.8416 22.5133 63.8416 21.9C63.8416 21.26 63.9949 20.7 64.3016 20.22C64.6216 19.74 65.1216 19.3667 65.8016 19.1C66.4816 18.82 67.3682 18.68 68.4616 18.68H71.3216V20.5H68.8016C68.0682 20.5 67.5616 20.62 67.2816 20.86C67.0149 21.1 66.8816 21.4 66.8816 21.76C66.8816 22.16 67.0349 22.48 67.3416 22.72C67.6616 22.9467 68.0949 23.06 68.6416 23.06C69.1616 23.06 69.6282 22.94 70.0416 22.7C70.4549 22.4467 70.7549 22.08 70.9416 21.6L71.4216 23.04C71.1949 23.7333 70.7816 24.26 70.1816 24.62C69.5816 24.98 68.8082 25.16 67.8616 25.16ZM80.5053 25.16C79.5853 25.16 78.6986 25.0533 77.8453 24.84C77.0053 24.6133 76.3386 24.3333 75.8453 24L76.8853 21.76C77.3786 22.0667 77.9586 22.32 78.6253 22.52C79.3053 22.7067 79.972 22.8 80.6253 22.8C81.3453 22.8 81.852 22.7133 82.1453 22.54C82.452 22.3667 82.6053 22.1267 82.6053 21.82C82.6053 21.5667 82.4853 21.38 82.2453 21.26C82.0186 21.1267 81.712 21.0267 81.3253 20.96C80.9386 20.8933 80.512 20.8267 80.0453 20.76C79.592 20.6933 79.132 20.6067 78.6653 20.5C78.1986 20.38 77.772 20.2067 77.3853 19.98C76.9986 19.7533 76.6853 19.4467 76.4453 19.06C76.2186 18.6733 76.1053 18.1733 76.1053 17.56C76.1053 16.88 76.2986 16.28 76.6853 15.76C77.0853 15.24 77.6586 14.8333 78.4053 14.54C79.152 14.2333 80.0453 14.08 81.0853 14.08C81.8186 14.08 82.5653 14.16 83.3253 14.32C84.0853 14.48 84.7186 14.7133 85.2253 15.02L84.1853 17.24C83.6653 16.9333 83.1386 16.7267 82.6053 16.62C82.0853 16.5 81.5786 16.44 81.0853 16.44C80.392 16.44 79.8853 16.5333 79.5653 16.72C79.2453 16.9067 79.0853 17.1467 79.0853 17.44C79.0853 17.7067 79.1986 17.9067 79.4253 18.04C79.6653 18.1733 79.9786 18.28 80.3653 18.36C80.752 18.44 81.172 18.5133 81.6253 18.58C82.092 18.6333 82.5586 18.72 83.0253 18.84C83.492 18.96 83.912 19.1333 84.2853 19.36C84.672 19.5733 84.9853 19.8733 85.2253 20.26C85.4653 20.6333 85.5853 21.1267 85.5853 21.74C85.5853 22.4067 85.3853 23 84.9853 23.52C84.5853 24.0267 84.0053 24.4267 83.2453 24.72C82.4986 25.0133 81.5853 25.16 80.5053 25.16ZM94.0503 14.08C94.9036 14.08 95.6636 14.2533 96.3303 14.6C97.0103 14.9333 97.5436 15.4533 97.9303 16.16C98.317 16.8533 98.5103 17.7467 98.5103 18.84V25H95.3903V19.32C95.3903 18.4533 95.197 17.8133 94.8103 17.4C94.437 16.9867 93.9036 16.78 93.2103 16.78C92.717 16.78 92.2703 16.8867 91.8703 17.1C91.4836 17.3 91.177 17.6133 90.9503 18.04C90.737 18.4667 90.6303 19.0133 90.6303 19.68V25H87.5103V10.16H90.6303V17.22L89.9303 16.32C90.317 15.6 90.8703 15.0467 91.5903 14.66C92.3103 14.2733 93.1303 14.08 94.0503 14.08ZM101.338 25V14.24H104.458V25H101.338ZM102.898 12.74C102.325 12.74 101.858 12.5733 101.498 12.24C101.138 11.9067 100.958 11.4933 100.958 11C100.958 10.5067 101.138 10.0933 101.498 9.76C101.858 9.42667 102.325 9.26 102.898 9.26C103.472 9.26 103.938 9.42 104.298 9.74C104.658 10.0467 104.838 10.4467 104.838 10.94C104.838 11.46 104.658 11.8933 104.298 12.24C103.952 12.5733 103.485 12.74 102.898 12.74ZM113.894 14.08C114.747 14.08 115.507 14.2533 116.174 14.6C116.854 14.9333 117.387 15.4533 117.774 16.16C118.161 16.8533 118.354 17.7467 118.354 18.84V25H115.234V19.32C115.234 18.4533 115.041 17.8133 114.654 17.4C114.281 16.9867 113.747 16.78 113.054 16.78C112.561 16.78 112.114 16.8867 111.714 17.1C111.327 17.3 111.021 17.6133 110.794 18.04C110.581 18.4667 110.474 19.0133 110.474 19.68V25H107.354V14.24H110.334V17.22L109.774 16.32C110.161 15.6 110.714 15.0467 111.434 14.66C112.154 14.2733 112.974 14.08 113.894 14.08ZM127.782 25V22.9L127.582 22.44V18.68C127.582 18.0133 127.376 17.4933 126.962 17.12C126.562 16.7467 125.942 16.56 125.102 16.56C124.529 16.56 123.962 16.6533 123.402 16.84C122.856 17.0133 122.389 17.2533 122.002 17.56L120.882 15.38C121.469 14.9667 122.176 14.6467 123.002 14.42C123.829 14.1933 124.669 14.08 125.522 14.08C127.162 14.08 128.436 14.4667 129.342 15.24C130.249 16.0133 130.702 17.22 130.702 18.86V25H127.782ZM124.502 25.16C123.662 25.16 122.942 25.02 122.342 24.74C121.742 24.4467 121.282 24.0533 120.962 23.56C120.642 23.0667 120.482 22.5133 120.482 21.9C120.482 21.26 120.636 20.7 120.942 20.22C121.262 19.74 121.762 19.3667 122.442 19.1C123.122 18.82 124.009 18.68 125.102 18.68H127.962V20.5H125.442C124.709 20.5 124.202 20.62 123.922 20.86C123.656 21.1 123.522 21.4 123.522 21.76C123.522 22.16 123.676 22.48 123.982 22.72C124.302 22.9467 124.736 23.06 125.282 23.06C125.802 23.06 126.269 22.94 126.682 22.7C127.096 22.4467 127.396 22.08 127.582 21.6L128.062 23.04C127.836 23.7333 127.422 24.26 126.822 24.62C126.222 24.98 125.449 25.16 124.502 25.16Z" fill="#E70A32"/>
<path d="M139.646 25.14C138.739 25.14 137.933 24.94 137.226 24.54C136.519 24.14 135.959 23.54 135.546 22.74C135.146 21.9267 134.946 20.9 134.946 19.66C134.946 18.4067 135.153 17.38 135.566 16.58C135.993 15.78 136.559 15.1867 137.266 14.8C137.986 14.4 138.779 14.2 139.646 14.2C140.699 14.2 141.626 14.4267 142.426 14.88C143.239 15.3333 143.879 15.9667 144.346 16.78C144.826 17.5933 145.066 18.5533 145.066 19.66C145.066 20.7667 144.826 21.7267 144.346 22.54C143.879 23.3533 143.239 23.9933 142.426 24.46C141.626 24.9133 140.699 25.14 139.646 25.14ZM133.726 25V10.16H136.226V16.8L136.026 19.64L136.106 22.48V25H133.726ZM139.366 23C139.966 23 140.499 22.8667 140.966 22.6C141.446 22.3333 141.826 21.9467 142.106 21.44C142.386 20.9333 142.526 20.34 142.526 19.66C142.526 18.9667 142.386 18.3733 142.106 17.88C141.826 17.3733 141.446 16.9867 140.966 16.72C140.499 16.4533 139.966 16.32 139.366 16.32C138.766 16.32 138.226 16.4533 137.746 16.72C137.266 16.9867 136.886 17.3733 136.606 17.88C136.326 18.3733 136.186 18.9667 136.186 19.66C136.186 20.34 136.326 20.9333 136.606 21.44C136.886 21.9467 137.266 22.3333 137.746 22.6C138.226 22.8667 138.766 23 139.366 23ZM152.237 25.14C151.144 25.14 150.17 24.9067 149.317 24.44C148.464 23.96 147.79 23.3067 147.297 22.48C146.804 21.6533 146.557 20.7133 146.557 19.66C146.557 18.5933 146.804 17.6533 147.297 16.84C147.79 16.0133 148.464 15.3667 149.317 14.9C150.17 14.4333 151.144 14.2 152.237 14.2C153.344 14.2 154.324 14.4333 155.177 14.9C156.044 15.3667 156.717 16.0067 157.197 16.82C157.69 17.6333 157.937 18.58 157.937 19.66C157.937 20.7133 157.69 21.6533 157.197 22.48C156.717 23.3067 156.044 23.96 155.177 24.44C154.324 24.9067 153.344 25.14 152.237 25.14ZM152.237 23C152.85 23 153.397 22.8667 153.877 22.6C154.357 22.3333 154.73 21.9467 154.997 21.44C155.277 20.9333 155.417 20.34 155.417 19.66C155.417 18.9667 155.277 18.3733 154.997 17.88C154.73 17.3733 154.357 16.9867 153.877 16.72C153.397 16.4533 152.857 16.32 152.257 16.32C151.644 16.32 151.097 16.4533 150.617 16.72C150.15 16.9867 149.777 17.3733 149.497 17.88C149.217 18.3733 149.077 18.9667 149.077 19.66C149.077 20.34 149.217 20.9333 149.497 21.44C149.777 21.9467 150.15 22.3333 150.617 22.6C151.097 22.8667 151.637 23 152.237 23ZM159.291 25V23.42L165.871 15.46L166.331 16.32H159.411V14.32H168.331V15.9L161.751 23.86L161.251 23H168.511V25H159.291ZM175.46 25.14C174.366 25.14 173.393 24.9067 172.54 24.44C171.686 23.96 171.013 23.3067 170.52 22.48C170.026 21.6533 169.78 20.7133 169.78 19.66C169.78 18.5933 170.026 17.6533 170.52 16.84C171.013 16.0133 171.686 15.3667 172.54 14.9C173.393 14.4333 174.366 14.2 175.46 14.2C176.566 14.2 177.546 14.4333 178.4 14.9C179.266 15.3667 179.94 16.0067 180.42 16.82C180.913 17.6333 181.16 18.58 181.16 19.66C181.16 20.7133 180.913 21.6533 180.42 22.48C179.94 23.3067 179.266 23.96 178.4 24.44C177.546 24.9067 176.566 25.14 175.46 25.14ZM175.46 23C176.073 23 176.62 22.8667 177.1 22.6C177.58 22.3333 177.953 21.9467 178.22 21.44C178.5 20.9333 178.64 20.34 178.64 19.66C178.64 18.9667 178.5 18.3733 178.22 17.88C177.953 17.3733 177.58 16.9867 177.1 16.72C176.62 16.4533 176.08 16.32 175.48 16.32C174.866 16.32 174.32 16.4533 173.84 16.72C173.373 16.9867 173 17.3733 172.72 17.88C172.44 18.3733 172.3 18.9667 172.3 19.66C172.3 20.34 172.44 20.9333 172.72 21.44C173 21.9467 173.373 22.3333 173.84 22.6C174.32 22.8667 174.86 23 175.46 23ZM183.55 25V14.32H185.93V17.26L185.65 16.4C185.97 15.68 186.47 15.1333 187.15 14.76C187.843 14.3867 188.703 14.2 189.73 14.2V16.58C189.623 16.5533 189.523 16.54 189.43 16.54C189.337 16.5267 189.243 16.52 189.15 16.52C188.203 16.52 187.45 16.8 186.89 17.36C186.33 17.9067 186.05 18.7267 186.05 19.82V25H183.55Z" fill="#ffffff"/>
</g>
<defs>
<clipPath id="clip0_29_18">
<rect width="191" height="36" fill="white"/>
</clipPath>
</defs>
</svg>
