<svg width="36" height="36" viewBox="0 0 36 36" fill="none" xmlns="http://www.w3.org/2000/svg">
    <path
        d="M34.7527 19.4217C34.4996 16.5804 34.0826 16.027 33.9251 15.8189C33.563 15.338 32.9837 15.0237 32.3705 14.6939C32.3359 14.6756 32.3059 14.6494 32.2831 14.6175C32.2602 14.5857 32.2451 14.5489 32.2389 14.5102C32.2327 14.4715 32.2356 14.4318 32.2473 14.3944C32.2591 14.357 32.2793 14.3228 32.3066 14.2945C32.4201 14.1794 32.5074 14.041 32.5623 13.8889C32.6173 13.7368 32.6387 13.5747 32.6251 13.4135C32.5986 13.1278 32.4658 12.8624 32.2528 12.67C32.0399 12.4777 31.7624 12.3724 31.4755 12.375H30.3786C30.3316 12.3753 30.2846 12.3783 30.238 12.3841C30.2059 12.3703 30.1728 12.3592 30.1388 12.3511C29.4891 10.9779 28.5997 9.09773 26.7561 8.18016C24.0216 6.82031 18.9844 6.75 18.0001 6.75C17.0157 6.75 11.9785 6.82031 9.24757 8.17805C7.40398 9.09562 6.51452 10.9758 5.86484 12.349L5.85921 12.3602C5.82681 12.3648 5.79499 12.3728 5.76429 12.3841C5.71763 12.3783 5.67068 12.3753 5.62366 12.375H4.52468C4.23773 12.3724 3.96027 12.4777 3.74732 12.67C3.53438 12.8624 3.40151 13.1278 3.37507 13.4135C3.36258 13.5743 3.38495 13.7358 3.44065 13.8872C3.49635 14.0385 3.58407 14.176 3.6978 14.2903C3.72501 14.3186 3.74529 14.3527 3.75702 14.3902C3.76876 14.4276 3.77164 14.4672 3.76544 14.506C3.75923 14.5447 3.74411 14.5814 3.72127 14.6133C3.69843 14.6452 3.66849 14.6714 3.63382 14.6897C3.02069 15.0216 2.43851 15.3359 2.07921 15.8147C1.92171 16.0256 1.50546 16.5762 1.25163 19.4175C1.11101 21.0164 1.08991 22.6716 1.2003 23.7375C1.43163 25.9523 1.86546 27.2911 1.88374 27.3466C1.95031 27.5488 2.07285 27.7279 2.23714 27.8632C2.40142 27.9985 2.60071 28.0844 2.81187 28.1109V28.125C2.81187 28.4234 2.93039 28.7095 3.14137 28.9205C3.35235 29.1315 3.6385 29.25 3.93687 29.25H7.87437C8.17274 29.25 8.45888 29.1315 8.66986 28.9205C8.88084 28.7095 8.99937 28.4234 8.99937 28.125C9.60476 28.125 10.0259 28.0167 10.4724 27.9014C11.117 27.7277 11.7759 27.6122 12.4412 27.5562C14.5864 27.3516 16.7197 27.2812 18.0001 27.2812C19.2544 27.2812 21.4819 27.3516 23.6307 27.5562C24.2986 27.6123 24.9601 27.7283 25.6072 27.9028C26.0347 28.0125 26.4404 28.1137 27.0022 28.1243C27.0022 28.4227 27.1207 28.7088 27.3317 28.9198C27.5427 29.1308 27.8288 29.2493 28.1272 29.2493H32.0647C32.3631 29.2493 32.6492 29.1308 32.8602 28.9198C33.0712 28.7088 33.1897 28.4227 33.1897 28.1243V28.1159C33.4013 28.0898 33.6012 28.0041 33.7661 27.8688C33.9309 27.7335 34.0538 27.5541 34.1206 27.3516C34.1389 27.296 34.5727 25.9573 34.8041 23.7424C34.9144 22.6758 34.8948 21.0234 34.7527 19.4217ZM7.89827 13.3109C8.46077 12.1155 9.10413 10.7627 10.2495 10.1925C11.9047 9.36844 15.3352 8.99719 18.0001 8.99719C20.6649 8.99719 24.0955 9.36563 25.7506 10.1925C26.896 10.7627 27.5366 12.1162 28.1019 13.3109L28.1722 13.4634C28.2133 13.5503 28.2315 13.6462 28.225 13.7421C28.2185 13.838 28.1875 13.9306 28.1351 14.0111C28.0826 14.0917 28.0104 14.1574 27.9253 14.2021C27.8402 14.2468 27.7451 14.2689 27.6491 14.2664C25.3126 14.2031 20.3907 14.0006 18.0001 14.0006C15.6094 14.0006 10.6876 14.208 8.34757 14.2713C8.2515 14.2738 8.15639 14.2517 8.07131 14.207C7.98623 14.1623 7.91402 14.0966 7.86156 14.0161C7.8091 13.9355 7.77815 13.8429 7.77165 13.747C7.76515 13.6512 7.78333 13.5552 7.82445 13.4684C7.84905 13.4163 7.87507 13.3636 7.89827 13.3109ZM8.7371 18.9098C7.52759 19.0554 6.31034 19.1273 5.0921 19.125C4.34679 19.125 3.57827 18.9141 3.43554 18.2503C3.3378 17.8038 3.34835 17.5528 3.40109 17.3004C3.44538 17.0859 3.51569 16.9298 3.86726 16.875C4.78132 16.7344 5.29249 16.9109 6.78874 17.3517C7.78085 17.6435 8.49663 18.0323 8.90444 18.3403C9.10905 18.4922 9.00007 18.8887 8.7371 18.9098ZM24.3029 24.6755C23.3776 24.7809 21.5269 24.7423 18.0212 24.7423C14.5154 24.7423 12.6655 24.7809 11.7401 24.6755C10.7853 24.5693 9.56819 23.6665 10.3993 22.8621C10.9526 22.332 12.2436 21.9354 13.9627 21.7125C15.6819 21.4896 16.4096 21.375 18.0141 21.375C19.6187 21.375 20.2726 21.4453 22.0655 21.7132C23.8585 21.9811 25.2134 22.3826 25.629 22.8628C26.3869 23.7234 25.257 24.5637 24.3029 24.6797V24.6755ZM32.5646 18.2496C32.424 18.9162 31.6505 19.1243 30.908 19.1243C29.6665 19.1246 28.426 19.0527 27.1927 18.9091C26.9776 18.8887 26.8777 18.5112 27.0957 18.3396C27.4972 18.0239 28.2207 17.6428 29.2114 17.351C30.7077 16.9102 31.5704 16.7337 32.3115 16.8806C32.4922 16.9165 32.5878 17.1105 32.5991 17.2322C32.6486 17.5709 32.637 17.915 32.5646 18.2496Z"
        fill="#E70A32" />
</svg>