<svg width="28" height="28" viewBox="0 0 28 28" fill="none" xmlns="http://www.w3.org/2000/svg">
<path d="M16.7193 18.5969L18.271 17.0451C18.5098 16.8035 18.7941 16.6115 19.1075 16.4806C19.421 16.3497 19.7572 16.2823 20.0968 16.2823C20.4366 16.2823 20.7728 16.3497 21.0863 16.4806C21.3997 16.6115 21.684 16.8035 21.9227 17.0451L23.7427 18.8652C23.9843 19.1039 24.1762 19.388 24.3071 19.7015C24.438 20.0149 24.5054 20.3513 24.5054 20.6909C24.5054 21.0307 24.438 21.367 24.3071 21.6805C24.1762 21.9939 23.9843 22.278 23.7427 22.5167L22.9143 23.3567C22.3436 23.933 21.6055 24.3145 20.8051 24.4464C20.0048 24.5784 19.1832 24.4544 18.4577 24.0918C12.214 20.8777 7.1285 15.7962 3.90938 9.55522C3.54646 8.82888 3.42324 8.00616 3.55741 7.20537C3.69157 6.40457 4.07622 5.66686 4.65607 5.09847L5.48436 4.25851C5.96961 3.77618 6.62601 3.50541 7.31019 3.50541C7.99437 3.50541 8.65077 3.77618 9.13602 4.25851L10.9677 6.09024C11.45 6.57551 11.7208 7.23183 11.7208 7.91602C11.7208 8.6002 11.45 9.25652 10.9677 9.74178L9.41601 11.2935C10.442 12.6813 11.5689 13.9914 12.7877 15.2133C13.9994 16.4271 15.3021 17.5467 16.6843 18.5619L16.7193 18.5969Z" stroke="#1D2129" stroke-width="2" stroke-linecap="round" stroke-linejoin="round"/>
</svg>
